<?xml version="1.0" encoding="us-ascii" standalone="no"?><svg xmlns="http://www.w3.org/2000/svg" xmlns:xlink="http://www.w3.org/1999/xlink" contentStyleType="text/css" height="2302px" preserveAspectRatio="none" style="width:1333px;height:2302px;background:#FFFFFF;" version="1.1" viewBox="0 0 1333 2302" width="1333px" zoomAndPan="magnify"><defs/><g><rect fill="#F1F1F1" height="36.2969" rx="12.5" ry="12.5" style="stroke:#181818;stroke-width:1.5;" width="114" x="10" y="1131.8633"/><text fill="#000000" font-family="sans-serif" font-size="14" lengthAdjust="spacing" textLength="94" x="20" y="1154.8584">Data Science</text><rect fill="#F1F1F1" height="36.2969" rx="12.5" ry="12.5" style="stroke:#181818;stroke-width:1.5;" width="34" x="174" y="1131.8633"/><text fill="#000000" font-family="sans-serif" font-size="14" lengthAdjust="spacing" textLength="14" x="184" y="1154.8584">AI</text><rect fill="#F1F1F1" height="36.2969" rx="12.5" ry="12.5" style="stroke:#181818;stroke-width:1.5;" width="218" x="258" y="20"/><text fill="#000000" font-family="sans-serif" font-size="14" lengthAdjust="spacing" textLength="198" x="268" y="42.9951">Reasoning, problem solving</text><rect fill="#F1F1F1" height="36.2969" rx="12.5" ry="12.5" style="stroke:#181818;stroke-width:1.5;" width="257" x="526" y="20"/><text fill="#000000" font-family="sans-serif" font-size="14" lengthAdjust="spacing" textLength="237" x="536" y="42.9951">Probabilistinc Model of the world</text><path d="M476,38.1484 L486,38.1484 C501,38.1484 501,38.1484 516,38.1484 L526,38.1484 " fill="none" style="stroke:#181818;stroke-width:1.0;"/><path d="M208,1150.0117 L218,1150.0117 C233,1150.0117 233,38.1484 248,38.1484 L258,38.1484 " fill="none" style="stroke:#181818;stroke-width:1.0;"/><rect fill="#F1F1F1" height="36.2969" rx="12.5" ry="12.5" style="stroke:#181818;stroke-width:1.5;" width="212" x="258" y="132.5938"/><text fill="#000000" font-family="sans-serif" font-size="14" lengthAdjust="spacing" textLength="192" x="268" y="155.5889">Knowledge representation</text><rect fill="#F1F1F1" height="36.2969" rx="12.5" ry="12.5" style="stroke:#181818;stroke-width:1.5;" width="108" x="520" y="76.2969"/><text fill="#000000" font-family="sans-serif" font-size="14" lengthAdjust="spacing" textLength="84" x="530" y="99.292">IBM Watson</text><path d="M470,150.7422 L480,150.7422 C495,150.7422 495,94.4453 510,94.4453 L520,94.4453 " fill="none" style="stroke:#181818;stroke-width:1.0;"/><rect fill="#F1F1F1" height="36.2969" rx="12.5" ry="12.5" style="stroke:#181818;stroke-width:1.5;" width="83" x="520" y="132.5938"/><text fill="#000000" font-family="sans-serif" font-size="14" lengthAdjust="spacing" textLength="63" x="530" y="155.5889">Jeopardy</text><path d="M470,150.7422 L480,150.7422 C495,150.7422 495,150.7422 510,150.7422 L520,150.7422 " fill="none" style="stroke:#181818;stroke-width:1.0;"/><rect fill="#F1F1F1" height="36.2969" rx="12.5" ry="12.5" style="stroke:#181818;stroke-width:1.5;" width="243" x="520" y="188.8906"/><text fill="#000000" font-family="sans-serif" font-size="14" lengthAdjust="spacing" textLength="223" x="530" y="211.8857">Onthology (Knowledge Graphs)</text><path d="M470,150.7422 L480,150.7422 C495,150.7422 495,207.0391 510,207.0391 L520,207.0391 " fill="none" style="stroke:#181818;stroke-width:1.0;"/><path d="M208,1150.0117 L218,1150.0117 C233,1150.0117 233,150.7422 248,150.7422 L258,150.7422 " fill="none" style="stroke:#181818;stroke-width:1.0;"/><rect fill="#F1F1F1" height="36.2969" rx="12.5" ry="12.5" style="stroke:#181818;stroke-width:1.5;" width="216" x="258" y="329.6328"/><text fill="#000000" font-family="sans-serif" font-size="14" lengthAdjust="spacing" textLength="196" x="268" y="352.6279">Planning &amp; Decision Making</text><rect fill="#F1F1F1" height="36.2969" rx="12.5" ry="12.5" style="stroke:#181818;stroke-width:1.5;" width="62" x="524" y="245.1875"/><text fill="#000000" font-family="sans-serif" font-size="14" lengthAdjust="spacing" textLength="42" x="534" y="268.1826">Chess</text><path d="M474,347.7813 L484,347.7813 C499,347.7813 499,263.3359 514,263.3359 L524,263.3359 " fill="none" style="stroke:#181818;stroke-width:1.0;"/><rect fill="#F1F1F1" height="36.2969" rx="12.5" ry="12.5" style="stroke:#181818;stroke-width:1.5;" width="81" x="524" y="301.4844"/><text fill="#000000" font-family="sans-serif" font-size="14" lengthAdjust="spacing" textLength="61" x="534" y="324.4795">AlphaGo</text><path d="M474,347.7813 L484,347.7813 C499,347.7813 499,319.6328 514,319.6328 L524,319.6328 " fill="none" style="stroke:#181818;stroke-width:1.0;"/><rect fill="#F1F1F1" height="36.2969" rx="12.5" ry="12.5" style="stroke:#181818;stroke-width:1.5;" width="134" x="524" y="357.7813"/><text fill="#000000" font-family="sans-serif" font-size="14" lengthAdjust="spacing" textLength="114" x="534" y="380.7764">Video Ganme AI</text><path d="M474,347.7813 L484,347.7813 C499,347.7813 499,375.9297 514,375.9297 L524,375.9297 " fill="none" style="stroke:#181818;stroke-width:1.0;"/><rect fill="#F1F1F1" height="36.2969" rx="12.5" ry="12.5" style="stroke:#181818;stroke-width:1.5;" width="134" x="524" y="414.0781"/><text fill="#000000" font-family="sans-serif" font-size="14" lengthAdjust="spacing" textLength="114" x="534" y="437.0732">Self driving cars</text><path d="M474,347.7813 L484,347.7813 C499,347.7813 499,432.2266 514,432.2266 L524,432.2266 " fill="none" style="stroke:#181818;stroke-width:1.0;"/><path d="M208,1150.0117 L218,1150.0117 C233,1150.0117 233,347.7813 248,347.7813 L258,347.7813 " fill="none" style="stroke:#181818;stroke-width:1.0;"/><rect fill="#F1F1F1" height="36.2969" rx="12.5" ry="12.5" style="stroke:#181818;stroke-width:1.5;" width="179" x="258" y="977.0469"/><text fill="#000000" font-family="sans-serif" font-size="14" lengthAdjust="spacing" textLength="159" x="268" y="1000.042">ML (Machine Learning)</text><rect fill="#F1F1F1" height="36.2969" rx="12.5" ry="12.5" style="stroke:#181818;stroke-width:1.5;" width="163" x="487" y="892.6016"/><text fill="#000000" font-family="sans-serif" font-size="14" lengthAdjust="spacing" textLength="139" x="497" y="915.5967">supervised learning</text><rect fill="#F1F1F1" height="36.2969" rx="12.5" ry="12.5" style="stroke:#181818;stroke-width:1.5;" width="115" x="700" y="639.2656"/><text fill="#000000" font-family="sans-serif" font-size="14" lengthAdjust="spacing" textLength="95" x="710" y="662.2607">Classification</text><rect fill="#F1F1F1" height="36.2969" rx="12.5" ry="12.5" style="stroke:#181818;stroke-width:1.5;" width="159" x="865" y="470.375"/><text fill="#000000" font-family="sans-serif" font-size="14" lengthAdjust="spacing" textLength="139" x="875" y="493.3701">Logistic Regression</text><rect fill="#F1F1F1" height="36.2969" rx="12.5" ry="12.5" style="stroke:#181818;stroke-width:1.5;" width="247" x="1074" y="470.375"/><text fill="#000000" font-family="sans-serif" font-size="14" lengthAdjust="spacing" textLength="227" x="1084" y="493.3701">Support Vector Machines (SVM)</text><path d="M1024,488.5234 L1034,488.5234 C1049,488.5234 1049,488.5234 1064,488.5234 L1074,488.5234 " fill="none" style="stroke:#181818;stroke-width:1.0;"/><path d="M815,657.4141 L825,657.4141 C840,657.4141 840,488.5234 855,488.5234 L865,488.5234 " fill="none" style="stroke:#181818;stroke-width:1.0;"/><rect fill="#F1F1F1" height="36.2969" rx="12.5" ry="12.5" style="stroke:#181818;stroke-width:1.5;" width="136" x="865" y="526.6719"/><text fill="#000000" font-family="sans-serif" font-size="14" lengthAdjust="spacing" textLength="116" x="875" y="549.667">Random Forests</text><path d="M815,657.4141 L825,657.4141 C840,657.4141 840,544.8203 855,544.8203 L865,544.8203 " fill="none" style="stroke:#181818;stroke-width:1.0;"/><rect fill="#F1F1F1" height="36.2969" rx="12.5" ry="12.5" style="stroke:#181818;stroke-width:1.5;" width="125" x="865" y="582.9688"/><text fill="#000000" font-family="sans-serif" font-size="14" lengthAdjust="spacing" textLength="105" x="875" y="605.9639">Desicion Trees</text><path d="M815,657.4141 L825,657.4141 C840,657.4141 840,601.1172 855,601.1172 L865,601.1172 " fill="none" style="stroke:#181818;stroke-width:1.0;"/><rect fill="#F1F1F1" height="36.2969" rx="12.5" ry="12.5" style="stroke:#181818;stroke-width:1.5;" width="155" x="865" y="639.2656"/><text fill="#000000" font-family="sans-serif" font-size="14" lengthAdjust="spacing" textLength="135" x="875" y="662.2607">Bayesian Networks</text><path d="M815,657.4141 L825,657.4141 C840,657.4141 840,657.4141 855,657.4141 L865,657.4141 " fill="none" style="stroke:#181818;stroke-width:1.0;"/><rect fill="#F1F1F1" height="36.2969" rx="12.5" ry="12.5" style="stroke:#181818;stroke-width:1.5;" width="149" x="865" y="695.5625"/><text fill="#000000" font-family="sans-serif" font-size="14" lengthAdjust="spacing" textLength="129" x="875" y="718.5576">Genetic Programs</text><path d="M815,657.4141 L825,657.4141 C840,657.4141 840,713.7109 855,713.7109 L865,713.7109 " fill="none" style="stroke:#181818;stroke-width:1.0;"/><rect fill="#F1F1F1" height="36.2969" rx="12.5" ry="12.5" style="stroke:#181818;stroke-width:1.5;" width="150" x="865" y="751.8594"/><text fill="#000000" font-family="sans-serif" font-size="14" lengthAdjust="spacing" textLength="126" x="875" y="774.8545">Nearest Neighbor</text><path d="M815,657.4141 L825,657.4141 C840,657.4141 840,770.0078 855,770.0078 L865,770.0078 " fill="none" style="stroke:#181818;stroke-width:1.0;"/><rect fill="#F1F1F1" height="36.2969" rx="12.5" ry="12.5" style="stroke:#181818;stroke-width:1.5;" width="137" x="865" y="808.1563"/><text fill="#000000" font-family="sans-serif" font-size="14" lengthAdjust="spacing" textLength="117" x="875" y="831.1514">Neural Networks</text><rect fill="#F1F1F1" height="36.2969" rx="12.5" ry="12.5" style="stroke:#181818;stroke-width:1.5;" width="239" x="1052" y="808.1563"/><text fill="#000000" font-family="sans-serif" font-size="14" lengthAdjust="spacing" textLength="219" x="1062" y="831.1514">Convolutional Neural Networks</text><path d="M1002,826.3047 L1012,826.3047 C1027,826.3047 1027,826.3047 1042,826.3047 L1052,826.3047 " fill="none" style="stroke:#181818;stroke-width:1.0;"/><path d="M815,657.4141 L825,657.4141 C840,657.4141 840,826.3047 855,826.3047 L865,826.3047 " fill="none" style="stroke:#181818;stroke-width:1.0;"/><path d="M650,910.75 L660,910.75 C675,910.75 675,657.4141 690,657.4141 L700,657.4141 " fill="none" style="stroke:#181818;stroke-width:1.0;"/><rect fill="#F1F1F1" height="36.2969" rx="12.5" ry="12.5" style="stroke:#181818;stroke-width:1.5;" width="99" x="700" y="1061.4922"/><text fill="#000000" font-family="sans-serif" font-size="14" lengthAdjust="spacing" textLength="79" x="710" y="1084.4873">Regression</text><rect fill="#F1F1F1" height="36.2969" rx="12.5" ry="12.5" style="stroke:#181818;stroke-width:1.5;" width="155" x="849" y="864.4531"/><text fill="#000000" font-family="sans-serif" font-size="14" lengthAdjust="spacing" textLength="131" x="859" y="887.4482">Linear Regression,</text><path d="M799,1079.6406 L809,1079.6406 C824,1079.6406 824,882.6016 839,882.6016 L849,882.6016 " fill="none" style="stroke:#181818;stroke-width:1.0;"/><rect fill="#F1F1F1" height="36.2969" rx="12.5" ry="12.5" style="stroke:#181818;stroke-width:1.5;" width="189" x="849" y="920.75"/><text fill="#000000" font-family="sans-serif" font-size="14" lengthAdjust="spacing" textLength="165" x="859" y="943.7451">Polynomial Regression,</text><path d="M799,1079.6406 L809,1079.6406 C824,1079.6406 824,938.8984 839,938.8984 L849,938.8984 " fill="none" style="stroke:#181818;stroke-width:1.0;"/><rect fill="#F1F1F1" height="36.2969" rx="12.5" ry="12.5" style="stroke:#181818;stroke-width:1.5;" width="133" x="849" y="977.0469"/><text fill="#000000" font-family="sans-serif" font-size="14" lengthAdjust="spacing" textLength="109" x="859" y="1000.042">Decision Trees,</text><path d="M799,1079.6406 L809,1079.6406 C824,1079.6406 824,995.1953 839,995.1953 L849,995.1953 " fill="none" style="stroke:#181818;stroke-width:1.0;"/><rect fill="#F1F1F1" height="36.2969" rx="12.5" ry="12.5" style="stroke:#181818;stroke-width:1.5;" width="144" x="849" y="1033.3438"/><text fill="#000000" font-family="sans-serif" font-size="14" lengthAdjust="spacing" textLength="120" x="859" y="1056.3389">Random Forests,</text><path d="M799,1079.6406 L809,1079.6406 C824,1079.6406 824,1051.4922 839,1051.4922 L849,1051.4922 " fill="none" style="stroke:#181818;stroke-width:1.0;"/><rect fill="#F1F1F1" height="36.2969" rx="12.5" ry="12.5" style="stroke:#181818;stroke-width:1.5;" width="159" x="849" y="1089.6406"/><text fill="#000000" font-family="sans-serif" font-size="14" lengthAdjust="spacing" textLength="135" x="859" y="1112.6357">Gradient Boosting,</text><path d="M799,1079.6406 L809,1079.6406 C824,1079.6406 824,1107.7891 839,1107.7891 L849,1107.7891 " fill="none" style="stroke:#181818;stroke-width:1.0;"/><rect fill="#F1F1F1" height="36.2969" rx="12.5" ry="12.5" style="stroke:#181818;stroke-width:1.5;" width="258" x="849" y="1145.9375"/><text fill="#000000" font-family="sans-serif" font-size="14" lengthAdjust="spacing" textLength="238" x="859" y="1168.9326">Support Vector Regression (SVR)</text><path d="M799,1079.6406 L809,1079.6406 C824,1079.6406 824,1164.0859 839,1164.0859 L849,1164.0859 " fill="none" style="stroke:#181818;stroke-width:1.0;"/><rect fill="#F1F1F1" height="36.2969" rx="12.5" ry="12.5" style="stroke:#181818;stroke-width:1.5;" width="137" x="849" y="1202.2344"/><text fill="#000000" font-family="sans-serif" font-size="14" lengthAdjust="spacing" textLength="117" x="859" y="1225.2295">Neural Networks</text><path d="M799,1079.6406 L809,1079.6406 C824,1079.6406 824,1220.3828 839,1220.3828 L849,1220.3828 " fill="none" style="stroke:#181818;stroke-width:1.0;"/><rect fill="#F1F1F1" height="36.2969" rx="12.5" ry="12.5" style="stroke:#181818;stroke-width:1.5;" width="155" x="849" y="1258.5313"/><text fill="#000000" font-family="sans-serif" font-size="14" lengthAdjust="spacing" textLength="135" x="859" y="1281.5264">Bayesian Networks</text><rect fill="#F1F1F1" height="36.2969" rx="12.5" ry="12.5" style="stroke:#181818;stroke-width:1.5;" width="239" x="1054" y="1258.5313"/><text fill="#000000" font-family="sans-serif" font-size="14" lengthAdjust="spacing" textLength="219" x="1064" y="1281.5264">Convolutional Neural Networks</text><path d="M1004,1276.6797 L1014,1276.6797 C1029,1276.6797 1029,1276.6797 1044,1276.6797 L1054,1276.6797 " fill="none" style="stroke:#181818;stroke-width:1.0;"/><path d="M799,1079.6406 L809,1079.6406 C824,1079.6406 824,1276.6797 839,1276.6797 L849,1276.6797 " fill="none" style="stroke:#181818;stroke-width:1.0;"/><path d="M650,910.75 L660,910.75 C675,910.75 675,1079.6406 690,1079.6406 L700,1079.6406 " fill="none" style="stroke:#181818;stroke-width:1.0;"/><rect fill="#F1F1F1" height="36.2969" rx="12.5" ry="12.5" style="stroke:#181818;stroke-width:1.5;" width="159" x="700" y="1314.8281"/><text fill="#000000" font-family="sans-serif" font-size="14" lengthAdjust="spacing" textLength="139" x="710" y="1337.8232">Anomaly Detection</text><path d="M650,910.75 L660,910.75 C675,910.75 675,1332.9766 690,1332.9766 L700,1332.9766 " fill="none" style="stroke:#181818;stroke-width:1.0;"/><path d="M437,995.1953 L447,995.1953 C462,995.1953 462,910.75 477,910.75 L487,910.75 " fill="none" style="stroke:#181818;stroke-width:1.0;"/><rect fill="#F1F1F1" height="36.2969" rx="12.5" ry="12.5" style="stroke:#181818;stroke-width:1.5;" width="180" x="487" y="1371.125"/><text fill="#000000" font-family="sans-serif" font-size="14" lengthAdjust="spacing" textLength="156" x="497" y="1394.1201">unsupervised learning</text><path d="M437,995.1953 L447,995.1953 C462,995.1953 462,1389.2734 477,1389.2734 L487,1389.2734 " fill="none" style="stroke:#181818;stroke-width:1.0;"/><rect fill="#F1F1F1" height="36.2969" rx="12.5" ry="12.5" style="stroke:#181818;stroke-width:1.5;" width="201" x="487" y="1427.4219"/><text fill="#000000" font-family="sans-serif" font-size="14" lengthAdjust="spacing" textLength="177" x="497" y="1450.417">semi supervised learning</text><path d="M437,995.1953 L447,995.1953 C462,995.1953 462,1445.5703 477,1445.5703 L487,1445.5703 " fill="none" style="stroke:#181818;stroke-width:1.0;"/><rect fill="#F1F1F1" height="36.2969" rx="12.5" ry="12.5" style="stroke:#181818;stroke-width:1.5;" width="187" x="487" y="1483.7188"/><text fill="#000000" font-family="sans-serif" font-size="14" lengthAdjust="spacing" textLength="167" x="497" y="1506.7139">reinforcement learning</text><path d="M437,995.1953 L447,995.1953 C462,995.1953 462,1501.8672 477,1501.8672 L487,1501.8672 " fill="none" style="stroke:#181818;stroke-width:1.0;"/><path d="M208,1150.0117 L218,1150.0117 C233,1150.0117 233,995.1953 248,995.1953 L258,995.1953 " fill="none" style="stroke:#181818;stroke-width:1.0;"/><rect fill="#F1F1F1" height="36.2969" rx="12.5" ry="12.5" style="stroke:#181818;stroke-width:1.5;" width="262" x="258" y="1680.7578"/><text fill="#000000" font-family="sans-serif" font-size="14" lengthAdjust="spacing" textLength="242" x="268" y="1703.7529">NLP - Natural language processing</text><rect fill="#F1F1F1" height="36.2969" rx="12.5" ry="12.5" style="stroke:#181818;stroke-width:1.5;" width="58" x="570" y="1540.0156"/><text fill="#000000" font-family="sans-serif" font-size="14" lengthAdjust="spacing" textLength="34" x="580" y="1563.0107">Chat</text><path d="M520,1698.9063 L530,1698.9063 C545,1698.9063 545,1558.1641 560,1558.1641 L570,1558.1641 " fill="none" style="stroke:#181818;stroke-width:1.0;"/><rect fill="#F1F1F1" height="36.2969" rx="12.5" ry="12.5" style="stroke:#181818;stroke-width:1.5;" width="87" x="570" y="1596.3125"/><text fill="#000000" font-family="sans-serif" font-size="14" lengthAdjust="spacing" textLength="67" x="580" y="1619.3076">Translate</text><path d="M520,1698.9063 L530,1698.9063 C545,1698.9063 545,1614.4609 560,1614.4609 L570,1614.4609 " fill="none" style="stroke:#181818;stroke-width:1.0;"/><rect fill="#F1F1F1" height="36.2969" rx="12.5" ry="12.5" style="stroke:#181818;stroke-width:1.5;" width="59" x="570" y="1652.6094"/><text fill="#000000" font-family="sans-serif" font-size="14" lengthAdjust="spacing" textLength="39" x="580" y="1675.6045">Alexa</text><path d="M520,1698.9063 L530,1698.9063 C545,1698.9063 545,1670.7578 560,1670.7578 L570,1670.7578 " fill="none" style="stroke:#181818;stroke-width:1.0;"/><rect fill="#F1F1F1" height="36.2969" rx="12.5" ry="12.5" style="stroke:#181818;stroke-width:1.5;" width="252" x="570" y="1708.9063"/><text fill="#000000" font-family="sans-serif" font-size="14" lengthAdjust="spacing" textLength="232" x="580" y="1731.9014">NER - Named Entity Recognition</text><path d="M520,1698.9063 L530,1698.9063 C545,1698.9063 545,1727.0547 560,1727.0547 L570,1727.0547 " fill="none" style="stroke:#181818;stroke-width:1.0;"/><rect fill="#F1F1F1" height="36.2969" rx="12.5" ry="12.5" style="stroke:#181818;stroke-width:1.5;" width="162" x="570" y="1765.2031"/><text fill="#000000" font-family="sans-serif" font-size="14" lengthAdjust="spacing" textLength="142" x="580" y="1788.1982">Question Answering</text><path d="M520,1698.9063 L530,1698.9063 C545,1698.9063 545,1783.3516 560,1783.3516 L570,1783.3516 " fill="none" style="stroke:#181818;stroke-width:1.0;"/><rect fill="#F1F1F1" height="36.2969" rx="12.5" ry="12.5" style="stroke:#181818;stroke-width:1.5;" width="128" x="570" y="1821.5"/><text fill="#000000" font-family="sans-serif" font-size="14" lengthAdjust="spacing" textLength="108" x="580" y="1844.4951">Summarization</text><path d="M520,1698.9063 L530,1698.9063 C545,1698.9063 545,1839.6484 560,1839.6484 L570,1839.6484 " fill="none" style="stroke:#181818;stroke-width:1.0;"/><path d="M208,1150.0117 L218,1150.0117 C233,1150.0117 233,1698.9063 248,1698.9063 L258,1698.9063 " fill="none" style="stroke:#181818;stroke-width:1.0;"/><rect fill="#F1F1F1" height="36.2969" rx="12.5" ry="12.5" style="stroke:#181818;stroke-width:1.5;" width="100" x="258" y="1793.3516"/><text fill="#000000" font-family="sans-serif" font-size="14" lengthAdjust="spacing" textLength="80" x="268" y="1816.3467">Perception</text><rect fill="#F1F1F1" height="36.2969" rx="12.5" ry="12.5" style="stroke:#181818;stroke-width:1.5;" width="55" x="408" y="1737.0547"/><text fill="#000000" font-family="sans-serif" font-size="14" lengthAdjust="spacing" textLength="35" x="418" y="1760.0498">Lidar</text><path d="M358,1811.5 L368,1811.5 C383,1811.5 383,1755.2031 398,1755.2031 L408,1755.2031 " fill="none" style="stroke:#181818;stroke-width:1.0;"/><rect fill="#F1F1F1" height="36.2969" rx="12.5" ry="12.5" style="stroke:#181818;stroke-width:1.5;" width="75" x="408" y="1793.3516"/><text fill="#000000" font-family="sans-serif" font-size="14" lengthAdjust="spacing" textLength="55" x="418" y="1816.3467">Camera</text><path d="M358,1811.5 L368,1811.5 C383,1811.5 383,1811.5 398,1811.5 L408,1811.5 " fill="none" style="stroke:#181818;stroke-width:1.0;"/><rect fill="#F1F1F1" height="36.2969" rx="12.5" ry="12.5" style="stroke:#181818;stroke-width:1.5;" width="105" x="408" y="1849.6484"/><text fill="#000000" font-family="sans-serif" font-size="14" lengthAdjust="spacing" textLength="85" x="418" y="1872.6436">Microphone</text><path d="M358,1811.5 L368,1811.5 C383,1811.5 383,1867.7969 398,1867.7969 L408,1867.7969 " fill="none" style="stroke:#181818;stroke-width:1.0;"/><path d="M208,1150.0117 L218,1150.0117 C233,1150.0117 233,1811.5 248,1811.5 L258,1811.5 " fill="none" style="stroke:#181818;stroke-width:1.0;"/><rect fill="#F1F1F1" height="36.2969" rx="12.5" ry="12.5" style="stroke:#181818;stroke-width:1.5;" width="198" x="258" y="1962.2422"/><text fill="#000000" font-family="sans-serif" font-size="14" lengthAdjust="spacing" textLength="178" x="268" y="1985.2373">Motion and manipulation</text><rect fill="#F1F1F1" height="36.2969" rx="12.5" ry="12.5" style="stroke:#181818;stroke-width:1.5;" width="84" x="506" y="1905.9453"/><text fill="#000000" font-family="sans-serif" font-size="14" lengthAdjust="spacing" textLength="64" x="516" y="1928.9404">Robotics</text><path d="M456,1980.3906 L466,1980.3906 C481,1980.3906 481,1924.0938 496,1924.0938 L506,1924.0938 " fill="none" style="stroke:#181818;stroke-width:1.0;"/><rect fill="#F1F1F1" height="36.2969" rx="12.5" ry="12.5" style="stroke:#181818;stroke-width:1.5;" width="222" x="506" y="1962.2422"/><text fill="#000000" font-family="sans-serif" font-size="14" lengthAdjust="spacing" textLength="202" x="516" y="1985.2373">Actuators - car break, wheel</text><path d="M456,1980.3906 L466,1980.3906 C481,1980.3906 481,1980.3906 496,1980.3906 L506,1980.3906 " fill="none" style="stroke:#181818;stroke-width:1.0;"/><rect fill="#F1F1F1" height="36.2969" rx="12.5" ry="12.5" style="stroke:#181818;stroke-width:1.5;" width="196" x="506" y="2018.5391"/><text fill="#000000" font-family="sans-serif" font-size="14" lengthAdjust="spacing" textLength="176" x="516" y="2041.5342">Boston Dynamics robots</text><path d="M456,1980.3906 L466,1980.3906 C481,1980.3906 481,2036.6875 496,2036.6875 L506,2036.6875 " fill="none" style="stroke:#181818;stroke-width:1.0;"/><path d="M208,1150.0117 L218,1150.0117 C233,1150.0117 233,1980.3906 248,1980.3906 L258,1980.3906 " fill="none" style="stroke:#181818;stroke-width:1.0;"/><rect fill="#F1F1F1" height="36.2969" rx="12.5" ry="12.5" style="stroke:#181818;stroke-width:1.5;" width="151" x="258" y="2131.1328"/><text fill="#000000" font-family="sans-serif" font-size="14" lengthAdjust="spacing" textLength="131" x="268" y="2154.1279">Social intelligence</text><rect fill="#F1F1F1" height="36.2969" rx="12.5" ry="12.5" style="stroke:#181818;stroke-width:1.5;" width="129" x="459" y="2074.8359"/><text fill="#000000" font-family="sans-serif" font-size="14" lengthAdjust="spacing" textLength="109" x="469" y="2097.8311">Robo therapist</text><path d="M409,2149.2813 L419,2149.2813 C434,2149.2813 434,2092.9844 449,2092.9844 L459,2092.9844 " fill="none" style="stroke:#181818;stroke-width:1.0;"/><rect fill="#F1F1F1" height="36.2969" rx="12.5" ry="12.5" style="stroke:#181818;stroke-width:1.5;" width="152" x="459" y="2131.1328"/><text fill="#000000" font-family="sans-serif" font-size="14" lengthAdjust="spacing" textLength="132" x="469" y="2154.1279">Sentiment analsys</text><path d="M409,2149.2813 L419,2149.2813 C434,2149.2813 434,2149.2813 449,2149.2813 L459,2149.2813 " fill="none" style="stroke:#181818;stroke-width:1.0;"/><rect fill="#F1F1F1" height="36.2969" rx="12.5" ry="12.5" style="stroke:#181818;stroke-width:1.5;" width="138" x="459" y="2187.4297"/><text fill="#000000" font-family="sans-serif" font-size="14" lengthAdjust="spacing" textLength="118" x="469" y="2210.4248">Vision detection</text><path d="M409,2149.2813 L419,2149.2813 C434,2149.2813 434,2205.5781 449,2205.5781 L459,2205.5781 " fill="none" style="stroke:#181818;stroke-width:1.0;"/><path d="M208,1150.0117 L218,1150.0117 C233,1150.0117 233,2149.2813 248,2149.2813 L258,2149.2813 " fill="none" style="stroke:#181818;stroke-width:1.0;"/><rect fill="#F1F1F1" height="36.2969" rx="12.5" ry="12.5" style="stroke:#181818;stroke-width:1.5;" width="204" x="258" y="2243.7266"/><text fill="#000000" font-family="sans-serif" font-size="14" lengthAdjust="spacing" textLength="184" x="268" y="2266.7217">AGI - General intelligence</text><rect fill="#F1F1F1" height="36.2969" rx="12.5" ry="12.5" style="stroke:#181818;stroke-width:1.5;" width="121" x="512" y="2243.7266"/><text fill="#000000" font-family="sans-serif" font-size="14" lengthAdjust="spacing" textLength="101" x="522" y="2266.7217">Pie in sky goal</text><path d="M462,2261.875 L472,2261.875 C487,2261.875 487,2261.875 502,2261.875 L512,2261.875 " fill="none" style="stroke:#181818;stroke-width:1.0;"/><path d="M208,1150.0117 L218,1150.0117 C233,1150.0117 233,2261.875 248,2261.875 L258,2261.875 " fill="none" style="stroke:#181818;stroke-width:1.0;"/><path d="M124,1150.0117 L134,1150.0117 C149,1150.0117 149,1150.0117 164,1150.0117 L174,1150.0117 " fill="none" style="stroke:#181818;stroke-width:1.0;"/><!--SRC=[ZLHHSzf837xthz3J3J199-cbdHvFXP1moM6E0gNFmXRsJjOhp-wQrFtrfxKDplMIcxw0Lzhzf4_Ify_Ee_M5Ccc1PJI26Ng4JQB891IDHZ1vaDyHh0aT6sMo2oWjxpKLu5WVnH3S8rY94VTAA-ULII3cb3Jm0NnEyCnMfmtANuQVDQKPWQNIaYFZqIisBSR3D8Plw2KEj8P7uX9jMhUdlutFMNDMmw37cLiiSpTiq5SQJKWHVeCP9Se9CCJuTCxnDYVdsi-9BdESStlOgPGOvcWAwkYEO4Fw0AbLWI4aQ9jt42zW46EIAqEm8BGXsh1zuAgIx54vIa5tdfQ5nDNed3gefESgrWLdeLY9b3QJKhZU9T6hicJhOKU9PmjTI0U3pIuUdW3MQ58ku9xbjNSdwuoSIWBphIKwMwTOYnqDBCbBEvxEZZaP2ab8_pABnTc-50u2A_ygo_UIG- -eBEgVSOGacoFhAZ1itA_S-YzJM0Wjj2yS5-T0AzQruK89p6lkSuSRdhtztrNfxJ8egGorXobpcD6iT_rKxJvQgFTw-F_CtopjhvLa8XHHrqB7I_Ip52hpvZo1eqAzFMwYB6KER1Cg0jkJindVvM85bx14tsGYQiag50s9e9D0kDS9-WviQz4uZPvEig7ls7ukxzODLY4Pt1clV2s5IpWpgcVnfP8UX3fEZ7icUmwmgOe2hVfnrWEiI18k-vSBbQBjif4GjWiQgyHocREXLexSe4l7eK2Zoag_s2PhteixEGa-yHLATvqaBNA6lILyke3dd4YtDwOo5W8sgmqMyWniUD_AViD964DbF6cjicurTZ72YfCb95e-RGwfHbDxbBQxsfsMJ3DHwSi-msJ-8Fa43TfNyLUAn0hkgOQCKKVHPv8ztUtgAEmx_rLsqf5i0txzxltL-vjtlm-sUGNtj8Vh3t3zn_ZcQdpr0RvkRo6uXz5Wlbh8zgwav91AtbRjco4THezuH5XN3O4nXDDW6mzXStSoIgkFoh89_AB7NTnUWZ_PRqhspUMFDvTJvQKCLjA2NHpDw82Lzl8quLHcO2oft5z-YXRT_8s1J7JB4i3Mujly0m00]--></g></svg>