<?xml version="1.0" encoding="us-ascii" standalone="no"?><svg xmlns="http://www.w3.org/2000/svg" xmlns:xlink="http://www.w3.org/1999/xlink" contentStyleType="text/css" height="2302px" preserveAspectRatio="none" style="width:1249px;height:2302px;background:#FFFFFF;" version="1.1" viewBox="0 0 1249 2302" width="1249px" zoomAndPan="magnify"><defs/><g><rect fill="#F1F1F1" height="36.2969" rx="12.5" ry="12.5" style="stroke:#181818;stroke-width:1.5;" width="114" x="10" y="1131.8633"/><text fill="#000000" font-family="sans-serif" font-size="14" lengthAdjust="spacing" textLength="94" x="20" y="1154.8584">Data Science</text><rect fill="#F1F1F1" height="36.2969" rx="12.5" ry="12.5" style="stroke:#181818;stroke-width:1.5;" width="34" x="174" y="597.043"/><text fill="#000000" font-family="sans-serif" font-size="14" lengthAdjust="spacing" textLength="14" x="184" y="620.0381">AI</text><rect fill="#F1F1F1" height="36.2969" rx="12.5" ry="12.5" style="stroke:#181818;stroke-width:1.5;" width="218" x="258" y="20"/><text fill="#000000" font-family="sans-serif" font-size="14" lengthAdjust="spacing" textLength="198" x="268" y="42.9951">Reasoning, problem solving</text><rect fill="#F1F1F1" height="36.2969" rx="12.5" ry="12.5" style="stroke:#181818;stroke-width:1.5;" width="257" x="526" y="20"/><text fill="#000000" font-family="sans-serif" font-size="14" lengthAdjust="spacing" textLength="237" x="536" y="42.9951">Probabilistinc Model of the world</text><path d="M476,38.1484 L486,38.1484 C501,38.1484 501,38.1484 516,38.1484 L526,38.1484 " fill="none" style="stroke:#181818;stroke-width:1.0;"/><path d="M208,615.1914 L218,615.1914 C233,615.1914 233,38.1484 248,38.1484 L258,38.1484 " fill="none" style="stroke:#181818;stroke-width:1.0;"/><rect fill="#F1F1F1" height="36.2969" rx="12.5" ry="12.5" style="stroke:#181818;stroke-width:1.5;" width="212" x="258" y="132.5938"/><text fill="#000000" font-family="sans-serif" font-size="14" lengthAdjust="spacing" textLength="192" x="268" y="155.5889">Knowledge representation</text><rect fill="#F1F1F1" height="36.2969" rx="12.5" ry="12.5" style="stroke:#181818;stroke-width:1.5;" width="108" x="520" y="76.2969"/><text fill="#000000" font-family="sans-serif" font-size="14" lengthAdjust="spacing" textLength="84" x="530" y="99.292">IBM Watson</text><path d="M470,150.7422 L480,150.7422 C495,150.7422 495,94.4453 510,94.4453 L520,94.4453 " fill="none" style="stroke:#181818;stroke-width:1.0;"/><rect fill="#F1F1F1" height="36.2969" rx="12.5" ry="12.5" style="stroke:#181818;stroke-width:1.5;" width="83" x="520" y="132.5938"/><text fill="#000000" font-family="sans-serif" font-size="14" lengthAdjust="spacing" textLength="63" x="530" y="155.5889">Jeopardy</text><path d="M470,150.7422 L480,150.7422 C495,150.7422 495,150.7422 510,150.7422 L520,150.7422 " fill="none" style="stroke:#181818;stroke-width:1.0;"/><rect fill="#F1F1F1" height="36.2969" rx="12.5" ry="12.5" style="stroke:#181818;stroke-width:1.5;" width="243" x="520" y="188.8906"/><text fill="#000000" font-family="sans-serif" font-size="14" lengthAdjust="spacing" textLength="223" x="530" y="211.8857">Onthology (Knowledge Graphs)</text><path d="M470,150.7422 L480,150.7422 C495,150.7422 495,207.0391 510,207.0391 L520,207.0391 " fill="none" style="stroke:#181818;stroke-width:1.0;"/><path d="M208,615.1914 L218,615.1914 C233,615.1914 233,150.7422 248,150.7422 L258,150.7422 " fill="none" style="stroke:#181818;stroke-width:1.0;"/><rect fill="#F1F1F1" height="36.2969" rx="12.5" ry="12.5" style="stroke:#181818;stroke-width:1.5;" width="216" x="258" y="329.6328"/><text fill="#000000" font-family="sans-serif" font-size="14" lengthAdjust="spacing" textLength="196" x="268" y="352.6279">Planning &amp; Decision Making</text><rect fill="#F1F1F1" height="36.2969" rx="12.5" ry="12.5" style="stroke:#181818;stroke-width:1.5;" width="62" x="524" y="245.1875"/><text fill="#000000" font-family="sans-serif" font-size="14" lengthAdjust="spacing" textLength="42" x="534" y="268.1826">Chess</text><path d="M474,347.7813 L484,347.7813 C499,347.7813 499,263.3359 514,263.3359 L524,263.3359 " fill="none" style="stroke:#181818;stroke-width:1.0;"/><rect fill="#F1F1F1" height="36.2969" rx="12.5" ry="12.5" style="stroke:#181818;stroke-width:1.5;" width="81" x="524" y="301.4844"/><text fill="#000000" font-family="sans-serif" font-size="14" lengthAdjust="spacing" textLength="61" x="534" y="324.4795">AlphaGo</text><path d="M474,347.7813 L484,347.7813 C499,347.7813 499,319.6328 514,319.6328 L524,319.6328 " fill="none" style="stroke:#181818;stroke-width:1.0;"/><rect fill="#F1F1F1" height="36.2969" rx="12.5" ry="12.5" style="stroke:#181818;stroke-width:1.5;" width="134" x="524" y="357.7813"/><text fill="#000000" font-family="sans-serif" font-size="14" lengthAdjust="spacing" textLength="114" x="534" y="380.7764">Video Ganme AI</text><path d="M474,347.7813 L484,347.7813 C499,347.7813 499,375.9297 514,375.9297 L524,375.9297 " fill="none" style="stroke:#181818;stroke-width:1.0;"/><rect fill="#F1F1F1" height="36.2969" rx="12.5" ry="12.5" style="stroke:#181818;stroke-width:1.5;" width="134" x="524" y="414.0781"/><text fill="#000000" font-family="sans-serif" font-size="14" lengthAdjust="spacing" textLength="114" x="534" y="437.0732">Self driving cars</text><path d="M474,347.7813 L484,347.7813 C499,347.7813 499,432.2266 514,432.2266 L524,432.2266 " fill="none" style="stroke:#181818;stroke-width:1.0;"/><path d="M208,615.1914 L218,615.1914 C233,615.1914 233,347.7813 248,347.7813 L258,347.7813 " fill="none" style="stroke:#181818;stroke-width:1.0;"/><rect fill="#F1F1F1" height="36.2969" rx="12.5" ry="12.5" style="stroke:#181818;stroke-width:1.5;" width="145" x="258" y="385.9297"/><text fill="#000000" font-family="sans-serif" font-size="14" lengthAdjust="spacing" textLength="125" x="268" y="408.9248">Machine Learning</text><path d="M208,615.1914 L218,615.1914 C233,615.1914 233,404.0781 248,404.0781 L258,404.0781 " fill="none" style="stroke:#181818;stroke-width:1.0;"/><rect fill="#F1F1F1" height="36.2969" rx="12.5" ry="12.5" style="stroke:#181818;stroke-width:1.5;" width="262" x="258" y="611.1172"/><text fill="#000000" font-family="sans-serif" font-size="14" lengthAdjust="spacing" textLength="242" x="268" y="634.1123">NLP - Natural language processing</text><rect fill="#F1F1F1" height="36.2969" rx="12.5" ry="12.5" style="stroke:#181818;stroke-width:1.5;" width="58" x="570" y="470.375"/><text fill="#000000" font-family="sans-serif" font-size="14" lengthAdjust="spacing" textLength="34" x="580" y="493.3701">Chat</text><path d="M520,629.2656 L530,629.2656 C545,629.2656 545,488.5234 560,488.5234 L570,488.5234 " fill="none" style="stroke:#181818;stroke-width:1.0;"/><rect fill="#F1F1F1" height="36.2969" rx="12.5" ry="12.5" style="stroke:#181818;stroke-width:1.5;" width="87" x="570" y="526.6719"/><text fill="#000000" font-family="sans-serif" font-size="14" lengthAdjust="spacing" textLength="67" x="580" y="549.667">Translate</text><path d="M520,629.2656 L530,629.2656 C545,629.2656 545,544.8203 560,544.8203 L570,544.8203 " fill="none" style="stroke:#181818;stroke-width:1.0;"/><rect fill="#F1F1F1" height="36.2969" rx="12.5" ry="12.5" style="stroke:#181818;stroke-width:1.5;" width="59" x="570" y="582.9688"/><text fill="#000000" font-family="sans-serif" font-size="14" lengthAdjust="spacing" textLength="39" x="580" y="605.9639">Alexa</text><path d="M520,629.2656 L530,629.2656 C545,629.2656 545,601.1172 560,601.1172 L570,601.1172 " fill="none" style="stroke:#181818;stroke-width:1.0;"/><rect fill="#F1F1F1" height="36.2969" rx="12.5" ry="12.5" style="stroke:#181818;stroke-width:1.5;" width="252" x="570" y="639.2656"/><text fill="#000000" font-family="sans-serif" font-size="14" lengthAdjust="spacing" textLength="232" x="580" y="662.2607">NER - Named Entity Recognition</text><path d="M520,629.2656 L530,629.2656 C545,629.2656 545,657.4141 560,657.4141 L570,657.4141 " fill="none" style="stroke:#181818;stroke-width:1.0;"/><rect fill="#F1F1F1" height="36.2969" rx="12.5" ry="12.5" style="stroke:#181818;stroke-width:1.5;" width="162" x="570" y="695.5625"/><text fill="#000000" font-family="sans-serif" font-size="14" lengthAdjust="spacing" textLength="142" x="580" y="718.5576">Question Answering</text><path d="M520,629.2656 L530,629.2656 C545,629.2656 545,713.7109 560,713.7109 L570,713.7109 " fill="none" style="stroke:#181818;stroke-width:1.0;"/><rect fill="#F1F1F1" height="36.2969" rx="12.5" ry="12.5" style="stroke:#181818;stroke-width:1.5;" width="128" x="570" y="751.8594"/><text fill="#000000" font-family="sans-serif" font-size="14" lengthAdjust="spacing" textLength="108" x="580" y="774.8545">Summarization</text><path d="M520,629.2656 L530,629.2656 C545,629.2656 545,770.0078 560,770.0078 L570,770.0078 " fill="none" style="stroke:#181818;stroke-width:1.0;"/><path d="M208,615.1914 L218,615.1914 C233,615.1914 233,629.2656 248,629.2656 L258,629.2656 " fill="none" style="stroke:#181818;stroke-width:1.0;"/><rect fill="#F1F1F1" height="36.2969" rx="12.5" ry="12.5" style="stroke:#181818;stroke-width:1.5;" width="100" x="258" y="723.7109"/><text fill="#000000" font-family="sans-serif" font-size="14" lengthAdjust="spacing" textLength="80" x="268" y="746.7061">Perception</text><rect fill="#F1F1F1" height="36.2969" rx="12.5" ry="12.5" style="stroke:#181818;stroke-width:1.5;" width="55" x="408" y="667.4141"/><text fill="#000000" font-family="sans-serif" font-size="14" lengthAdjust="spacing" textLength="35" x="418" y="690.4092">Lidar</text><path d="M358,741.8594 L368,741.8594 C383,741.8594 383,685.5625 398,685.5625 L408,685.5625 " fill="none" style="stroke:#181818;stroke-width:1.0;"/><rect fill="#F1F1F1" height="36.2969" rx="12.5" ry="12.5" style="stroke:#181818;stroke-width:1.5;" width="75" x="408" y="723.7109"/><text fill="#000000" font-family="sans-serif" font-size="14" lengthAdjust="spacing" textLength="55" x="418" y="746.7061">Camera</text><path d="M358,741.8594 L368,741.8594 C383,741.8594 383,741.8594 398,741.8594 L408,741.8594 " fill="none" style="stroke:#181818;stroke-width:1.0;"/><rect fill="#F1F1F1" height="36.2969" rx="12.5" ry="12.5" style="stroke:#181818;stroke-width:1.5;" width="105" x="408" y="780.0078"/><text fill="#000000" font-family="sans-serif" font-size="14" lengthAdjust="spacing" textLength="85" x="418" y="803.0029">Microphone</text><path d="M358,741.8594 L368,741.8594 C383,741.8594 383,798.1563 398,798.1563 L408,798.1563 " fill="none" style="stroke:#181818;stroke-width:1.0;"/><path d="M208,615.1914 L218,615.1914 C233,615.1914 233,741.8594 248,741.8594 L258,741.8594 " fill="none" style="stroke:#181818;stroke-width:1.0;"/><rect fill="#F1F1F1" height="36.2969" rx="12.5" ry="12.5" style="stroke:#181818;stroke-width:1.5;" width="198" x="258" y="892.6016"/><text fill="#000000" font-family="sans-serif" font-size="14" lengthAdjust="spacing" textLength="178" x="268" y="915.5967">Motion and manipulation</text><rect fill="#F1F1F1" height="36.2969" rx="12.5" ry="12.5" style="stroke:#181818;stroke-width:1.5;" width="84" x="506" y="836.3047"/><text fill="#000000" font-family="sans-serif" font-size="14" lengthAdjust="spacing" textLength="64" x="516" y="859.2998">Robotics</text><path d="M456,910.75 L466,910.75 C481,910.75 481,854.4531 496,854.4531 L506,854.4531 " fill="none" style="stroke:#181818;stroke-width:1.0;"/><rect fill="#F1F1F1" height="36.2969" rx="12.5" ry="12.5" style="stroke:#181818;stroke-width:1.5;" width="222" x="506" y="892.6016"/><text fill="#000000" font-family="sans-serif" font-size="14" lengthAdjust="spacing" textLength="202" x="516" y="915.5967">Actuators - car break, wheel</text><path d="M456,910.75 L466,910.75 C481,910.75 481,910.75 496,910.75 L506,910.75 " fill="none" style="stroke:#181818;stroke-width:1.0;"/><rect fill="#F1F1F1" height="36.2969" rx="12.5" ry="12.5" style="stroke:#181818;stroke-width:1.5;" width="196" x="506" y="948.8984"/><text fill="#000000" font-family="sans-serif" font-size="14" lengthAdjust="spacing" textLength="176" x="516" y="971.8936">Boston Dynamics robots</text><path d="M456,910.75 L466,910.75 C481,910.75 481,967.0469 496,967.0469 L506,967.0469 " fill="none" style="stroke:#181818;stroke-width:1.0;"/><path d="M208,615.1914 L218,615.1914 C233,615.1914 233,910.75 248,910.75 L258,910.75 " fill="none" style="stroke:#181818;stroke-width:1.0;"/><rect fill="#F1F1F1" height="36.2969" rx="12.5" ry="12.5" style="stroke:#181818;stroke-width:1.5;" width="151" x="258" y="1061.4922"/><text fill="#000000" font-family="sans-serif" font-size="14" lengthAdjust="spacing" textLength="131" x="268" y="1084.4873">Social intelligence</text><rect fill="#F1F1F1" height="36.2969" rx="12.5" ry="12.5" style="stroke:#181818;stroke-width:1.5;" width="129" x="459" y="1005.1953"/><text fill="#000000" font-family="sans-serif" font-size="14" lengthAdjust="spacing" textLength="109" x="469" y="1028.1904">Robo therapist</text><path d="M409,1079.6406 L419,1079.6406 C434,1079.6406 434,1023.3438 449,1023.3438 L459,1023.3438 " fill="none" style="stroke:#181818;stroke-width:1.0;"/><rect fill="#F1F1F1" height="36.2969" rx="12.5" ry="12.5" style="stroke:#181818;stroke-width:1.5;" width="152" x="459" y="1061.4922"/><text fill="#000000" font-family="sans-serif" font-size="14" lengthAdjust="spacing" textLength="132" x="469" y="1084.4873">Sentiment analsys</text><path d="M409,1079.6406 L419,1079.6406 C434,1079.6406 434,1079.6406 449,1079.6406 L459,1079.6406 " fill="none" style="stroke:#181818;stroke-width:1.0;"/><rect fill="#F1F1F1" height="36.2969" rx="12.5" ry="12.5" style="stroke:#181818;stroke-width:1.5;" width="138" x="459" y="1117.7891"/><text fill="#000000" font-family="sans-serif" font-size="14" lengthAdjust="spacing" textLength="118" x="469" y="1140.7842">Vision detection</text><path d="M409,1079.6406 L419,1079.6406 C434,1079.6406 434,1135.9375 449,1135.9375 L459,1135.9375 " fill="none" style="stroke:#181818;stroke-width:1.0;"/><path d="M208,615.1914 L218,615.1914 C233,615.1914 233,1079.6406 248,1079.6406 L258,1079.6406 " fill="none" style="stroke:#181818;stroke-width:1.0;"/><rect fill="#F1F1F1" height="36.2969" rx="12.5" ry="12.5" style="stroke:#181818;stroke-width:1.5;" width="204" x="258" y="1174.0859"/><text fill="#000000" font-family="sans-serif" font-size="14" lengthAdjust="spacing" textLength="184" x="268" y="1197.0811">AGI - General intelligence</text><rect fill="#F1F1F1" height="36.2969" rx="12.5" ry="12.5" style="stroke:#181818;stroke-width:1.5;" width="121" x="512" y="1174.0859"/><text fill="#000000" font-family="sans-serif" font-size="14" lengthAdjust="spacing" textLength="101" x="522" y="1197.0811">Pie in sky goal</text><path d="M462,1192.2344 L472,1192.2344 C487,1192.2344 487,1192.2344 502,1192.2344 L512,1192.2344 " fill="none" style="stroke:#181818;stroke-width:1.0;"/><path d="M208,615.1914 L218,615.1914 C233,615.1914 233,1192.2344 248,1192.2344 L258,1192.2344 " fill="none" style="stroke:#181818;stroke-width:1.0;"/><path d="M124,1150.0117 L134,1150.0117 C149,1150.0117 149,615.1914 164,615.1914 L174,615.1914 " fill="none" style="stroke:#181818;stroke-width:1.0;"/><rect fill="#F1F1F1" height="36.2969" rx="12.5" ry="12.5" style="stroke:#181818;stroke-width:1.5;" width="179" x="174" y="1737.0547"/><text fill="#000000" font-family="sans-serif" font-size="14" lengthAdjust="spacing" textLength="159" x="184" y="1760.0498">ML (Machine Learning)</text><rect fill="#F1F1F1" height="36.2969" rx="12.5" ry="12.5" style="stroke:#181818;stroke-width:1.5;" width="163" x="403" y="1652.6094"/><text fill="#000000" font-family="sans-serif" font-size="14" lengthAdjust="spacing" textLength="139" x="413" y="1675.6045">supervised learning</text><rect fill="#F1F1F1" height="36.2969" rx="12.5" ry="12.5" style="stroke:#181818;stroke-width:1.5;" width="115" x="616" y="1399.2734"/><text fill="#000000" font-family="sans-serif" font-size="14" lengthAdjust="spacing" textLength="95" x="626" y="1422.2686">Classification</text><rect fill="#F1F1F1" height="36.2969" rx="12.5" ry="12.5" style="stroke:#181818;stroke-width:1.5;" width="159" x="781" y="1230.3828"/><text fill="#000000" font-family="sans-serif" font-size="14" lengthAdjust="spacing" textLength="139" x="791" y="1253.3779">Logistic Regression</text><rect fill="#F1F1F1" height="36.2969" rx="12.5" ry="12.5" style="stroke:#181818;stroke-width:1.5;" width="247" x="990" y="1230.3828"/><text fill="#000000" font-family="sans-serif" font-size="14" lengthAdjust="spacing" textLength="227" x="1000" y="1253.3779">Support Vector Machines (SVM)</text><path d="M940,1248.5313 L950,1248.5313 C965,1248.5313 965,1248.5313 980,1248.5313 L990,1248.5313 " fill="none" style="stroke:#181818;stroke-width:1.0;"/><path d="M731,1417.4219 L741,1417.4219 C756,1417.4219 756,1248.5313 771,1248.5313 L781,1248.5313 " fill="none" style="stroke:#181818;stroke-width:1.0;"/><rect fill="#F1F1F1" height="36.2969" rx="12.5" ry="12.5" style="stroke:#181818;stroke-width:1.5;" width="136" x="781" y="1286.6797"/><text fill="#000000" font-family="sans-serif" font-size="14" lengthAdjust="spacing" textLength="116" x="791" y="1309.6748">Random Forests</text><path d="M731,1417.4219 L741,1417.4219 C756,1417.4219 756,1304.8281 771,1304.8281 L781,1304.8281 " fill="none" style="stroke:#181818;stroke-width:1.0;"/><rect fill="#F1F1F1" height="36.2969" rx="12.5" ry="12.5" style="stroke:#181818;stroke-width:1.5;" width="125" x="781" y="1342.9766"/><text fill="#000000" font-family="sans-serif" font-size="14" lengthAdjust="spacing" textLength="105" x="791" y="1365.9717">Desicion Trees</text><path d="M731,1417.4219 L741,1417.4219 C756,1417.4219 756,1361.125 771,1361.125 L781,1361.125 " fill="none" style="stroke:#181818;stroke-width:1.0;"/><rect fill="#F1F1F1" height="36.2969" rx="12.5" ry="12.5" style="stroke:#181818;stroke-width:1.5;" width="155" x="781" y="1399.2734"/><text fill="#000000" font-family="sans-serif" font-size="14" lengthAdjust="spacing" textLength="135" x="791" y="1422.2686">Bayesian Networks</text><path d="M731,1417.4219 L741,1417.4219 C756,1417.4219 756,1417.4219 771,1417.4219 L781,1417.4219 " fill="none" style="stroke:#181818;stroke-width:1.0;"/><rect fill="#F1F1F1" height="36.2969" rx="12.5" ry="12.5" style="stroke:#181818;stroke-width:1.5;" width="149" x="781" y="1455.5703"/><text fill="#000000" font-family="sans-serif" font-size="14" lengthAdjust="spacing" textLength="129" x="791" y="1478.5654">Genetic Programs</text><path d="M731,1417.4219 L741,1417.4219 C756,1417.4219 756,1473.7188 771,1473.7188 L781,1473.7188 " fill="none" style="stroke:#181818;stroke-width:1.0;"/><rect fill="#F1F1F1" height="36.2969" rx="12.5" ry="12.5" style="stroke:#181818;stroke-width:1.5;" width="150" x="781" y="1511.8672"/><text fill="#000000" font-family="sans-serif" font-size="14" lengthAdjust="spacing" textLength="126" x="791" y="1534.8623">Nearest Neighbor</text><path d="M731,1417.4219 L741,1417.4219 C756,1417.4219 756,1530.0156 771,1530.0156 L781,1530.0156 " fill="none" style="stroke:#181818;stroke-width:1.0;"/><rect fill="#F1F1F1" height="36.2969" rx="12.5" ry="12.5" style="stroke:#181818;stroke-width:1.5;" width="137" x="781" y="1568.1641"/><text fill="#000000" font-family="sans-serif" font-size="14" lengthAdjust="spacing" textLength="117" x="791" y="1591.1592">Neural Networks</text><rect fill="#F1F1F1" height="36.2969" rx="12.5" ry="12.5" style="stroke:#181818;stroke-width:1.5;" width="239" x="968" y="1568.1641"/><text fill="#000000" font-family="sans-serif" font-size="14" lengthAdjust="spacing" textLength="219" x="978" y="1591.1592">Convolutional Neural Networks</text><path d="M918,1586.3125 L928,1586.3125 C943,1586.3125 943,1586.3125 958,1586.3125 L968,1586.3125 " fill="none" style="stroke:#181818;stroke-width:1.0;"/><path d="M731,1417.4219 L741,1417.4219 C756,1417.4219 756,1586.3125 771,1586.3125 L781,1586.3125 " fill="none" style="stroke:#181818;stroke-width:1.0;"/><path d="M566,1670.7578 L576,1670.7578 C591,1670.7578 591,1417.4219 606,1417.4219 L616,1417.4219 " fill="none" style="stroke:#181818;stroke-width:1.0;"/><rect fill="#F1F1F1" height="36.2969" rx="12.5" ry="12.5" style="stroke:#181818;stroke-width:1.5;" width="99" x="616" y="1821.5"/><text fill="#000000" font-family="sans-serif" font-size="14" lengthAdjust="spacing" textLength="79" x="626" y="1844.4951">Regression</text><rect fill="#F1F1F1" height="36.2969" rx="12.5" ry="12.5" style="stroke:#181818;stroke-width:1.5;" width="155" x="765" y="1624.4609"/><text fill="#000000" font-family="sans-serif" font-size="14" lengthAdjust="spacing" textLength="131" x="775" y="1647.4561">Linear Regression,</text><path d="M715,1839.6484 L725,1839.6484 C740,1839.6484 740,1642.6094 755,1642.6094 L765,1642.6094 " fill="none" style="stroke:#181818;stroke-width:1.0;"/><rect fill="#F1F1F1" height="36.2969" rx="12.5" ry="12.5" style="stroke:#181818;stroke-width:1.5;" width="189" x="765" y="1680.7578"/><text fill="#000000" font-family="sans-serif" font-size="14" lengthAdjust="spacing" textLength="165" x="775" y="1703.7529">Polynomial Regression,</text><path d="M715,1839.6484 L725,1839.6484 C740,1839.6484 740,1698.9063 755,1698.9063 L765,1698.9063 " fill="none" style="stroke:#181818;stroke-width:1.0;"/><rect fill="#F1F1F1" height="36.2969" rx="12.5" ry="12.5" style="stroke:#181818;stroke-width:1.5;" width="133" x="765" y="1737.0547"/><text fill="#000000" font-family="sans-serif" font-size="14" lengthAdjust="spacing" textLength="109" x="775" y="1760.0498">Decision Trees,</text><path d="M715,1839.6484 L725,1839.6484 C740,1839.6484 740,1755.2031 755,1755.2031 L765,1755.2031 " fill="none" style="stroke:#181818;stroke-width:1.0;"/><rect fill="#F1F1F1" height="36.2969" rx="12.5" ry="12.5" style="stroke:#181818;stroke-width:1.5;" width="144" x="765" y="1793.3516"/><text fill="#000000" font-family="sans-serif" font-size="14" lengthAdjust="spacing" textLength="120" x="775" y="1816.3467">Random Forests,</text><path d="M715,1839.6484 L725,1839.6484 C740,1839.6484 740,1811.5 755,1811.5 L765,1811.5 " fill="none" style="stroke:#181818;stroke-width:1.0;"/><rect fill="#F1F1F1" height="36.2969" rx="12.5" ry="12.5" style="stroke:#181818;stroke-width:1.5;" width="159" x="765" y="1849.6484"/><text fill="#000000" font-family="sans-serif" font-size="14" lengthAdjust="spacing" textLength="135" x="775" y="1872.6436">Gradient Boosting,</text><path d="M715,1839.6484 L725,1839.6484 C740,1839.6484 740,1867.7969 755,1867.7969 L765,1867.7969 " fill="none" style="stroke:#181818;stroke-width:1.0;"/><rect fill="#F1F1F1" height="36.2969" rx="12.5" ry="12.5" style="stroke:#181818;stroke-width:1.5;" width="258" x="765" y="1905.9453"/><text fill="#000000" font-family="sans-serif" font-size="14" lengthAdjust="spacing" textLength="238" x="775" y="1928.9404">Support Vector Regression (SVR)</text><path d="M715,1839.6484 L725,1839.6484 C740,1839.6484 740,1924.0938 755,1924.0938 L765,1924.0938 " fill="none" style="stroke:#181818;stroke-width:1.0;"/><rect fill="#F1F1F1" height="36.2969" rx="12.5" ry="12.5" style="stroke:#181818;stroke-width:1.5;" width="137" x="765" y="1962.2422"/><text fill="#000000" font-family="sans-serif" font-size="14" lengthAdjust="spacing" textLength="117" x="775" y="1985.2373">Neural Networks</text><path d="M715,1839.6484 L725,1839.6484 C740,1839.6484 740,1980.3906 755,1980.3906 L765,1980.3906 " fill="none" style="stroke:#181818;stroke-width:1.0;"/><rect fill="#F1F1F1" height="36.2969" rx="12.5" ry="12.5" style="stroke:#181818;stroke-width:1.5;" width="155" x="765" y="2018.5391"/><text fill="#000000" font-family="sans-serif" font-size="14" lengthAdjust="spacing" textLength="135" x="775" y="2041.5342">Bayesian Networks</text><rect fill="#F1F1F1" height="36.2969" rx="12.5" ry="12.5" style="stroke:#181818;stroke-width:1.5;" width="239" x="970" y="2018.5391"/><text fill="#000000" font-family="sans-serif" font-size="14" lengthAdjust="spacing" textLength="219" x="980" y="2041.5342">Convolutional Neural Networks</text><path d="M920,2036.6875 L930,2036.6875 C945,2036.6875 945,2036.6875 960,2036.6875 L970,2036.6875 " fill="none" style="stroke:#181818;stroke-width:1.0;"/><path d="M715,1839.6484 L725,1839.6484 C740,1839.6484 740,2036.6875 755,2036.6875 L765,2036.6875 " fill="none" style="stroke:#181818;stroke-width:1.0;"/><path d="M566,1670.7578 L576,1670.7578 C591,1670.7578 591,1839.6484 606,1839.6484 L616,1839.6484 " fill="none" style="stroke:#181818;stroke-width:1.0;"/><rect fill="#F1F1F1" height="36.2969" rx="12.5" ry="12.5" style="stroke:#181818;stroke-width:1.5;" width="159" x="616" y="2074.8359"/><text fill="#000000" font-family="sans-serif" font-size="14" lengthAdjust="spacing" textLength="139" x="626" y="2097.8311">Anomaly Detection</text><path d="M566,1670.7578 L576,1670.7578 C591,1670.7578 591,2092.9844 606,2092.9844 L616,2092.9844 " fill="none" style="stroke:#181818;stroke-width:1.0;"/><path d="M353,1755.2031 L363,1755.2031 C378,1755.2031 378,1670.7578 393,1670.7578 L403,1670.7578 " fill="none" style="stroke:#181818;stroke-width:1.0;"/><rect fill="#F1F1F1" height="36.2969" rx="12.5" ry="12.5" style="stroke:#181818;stroke-width:1.5;" width="180" x="403" y="2131.1328"/><text fill="#000000" font-family="sans-serif" font-size="14" lengthAdjust="spacing" textLength="156" x="413" y="2154.1279">unsupervised learning</text><path d="M353,1755.2031 L363,1755.2031 C378,1755.2031 378,2149.2813 393,2149.2813 L403,2149.2813 " fill="none" style="stroke:#181818;stroke-width:1.0;"/><rect fill="#F1F1F1" height="36.2969" rx="12.5" ry="12.5" style="stroke:#181818;stroke-width:1.5;" width="201" x="403" y="2187.4297"/><text fill="#000000" font-family="sans-serif" font-size="14" lengthAdjust="spacing" textLength="177" x="413" y="2210.4248">semi supervised learning</text><path d="M353,1755.2031 L363,1755.2031 C378,1755.2031 378,2205.5781 393,2205.5781 L403,2205.5781 " fill="none" style="stroke:#181818;stroke-width:1.0;"/><rect fill="#F1F1F1" height="36.2969" rx="12.5" ry="12.5" style="stroke:#181818;stroke-width:1.5;" width="187" x="403" y="2243.7266"/><text fill="#000000" font-family="sans-serif" font-size="14" lengthAdjust="spacing" textLength="167" x="413" y="2266.7217">reinforcement learning</text><path d="M353,1755.2031 L363,1755.2031 C378,1755.2031 378,2261.875 393,2261.875 L403,2261.875 " fill="none" style="stroke:#181818;stroke-width:1.0;"/><path d="M124,1150.0117 L134,1150.0117 C149,1150.0117 149,1755.2031 164,1755.2031 L174,1755.2031 " fill="none" style="stroke:#181818;stroke-width:1.0;"/><!--SRC=[ZLHDSo8v3Btthz1f2wXaQZ8rjRMLqq38CCa0oqB2d8LRTBjmMrsscsplhr-vlyXyP6il3PPiIU_fIPzyG1SARTC2osG2Smm8EwN9Aaec4vW-o7S2MqBFLjli2ah71qC5U3PdCKJt13PYn8CssWTj5Qmu9GDyX90JlB0pQHFbg-KNGsb6uAXqvCa639fj6-DXje9l62GFj8P7uX9TMhUdFst8sN1Mm-WIP-6mpFsuYRunQ6E9y1lCIMalWM65fw76kvoyR_zEJPdZWjl3NgV4i41RK0Tt0ZioHqYTZWX1eMlUIJILQqkm97IsYmlhvGQkOOsXScX0QiWgbCg49YNvNcN7qE5wScYzmK1zCVGtjd_NzzicLa4ftDkWGotCAywilj3qLqK-dc1g_Gkv8S6kAWfq-f-1KTYGKrHUNYvrYgwhHbAuBkbAAyTbpfPQaDn4Hvj2WLQNbNdLeoqVnArw6bMeCB3pKhIG10T7UBg2bvp8j3Tcx8C4czSM2ta6BhvloTonqaAOje6CqLadk2v758wqLkJKzqFOAEGZTQ7njUzRrtGvfK1gW3rTF4Wz2xBaVXb_eqciu4yrP8onK5WjOVHZSrjH-QeaTzPU6c8wHzV5EuFItgDM5tg4OixY22XfM-PY-tjFx4zPiWkmbrBPzLhoCDhjL-Fk-LPOvm8-ixnjQHBZdBnM4UQJ8-gDCwp5Z1RM56J0JhqzmexvPI0pXqLlNalj4b9-TPOV9FrWRrJxVH31nlRCfeh06k_Fbtu2AEgoakIL_QfFic5JMovYjt_X7MQrWJUOlwTYCCl0fphgOCOSTqqsU7xWzv8fChmT_nVWjzZyNqHC1HgQMd3q8co4Kzctf0EU2lsci6GrQdjacTn6xhqlIJwHxEXkJoTnruLdaUsPN8Fnvjs7zny-lhivKC2RqRCzoOgqeBWejI68ipDEHelDKjPs9R4X5PawVMYGZPD7F2DigsR6RY6UHa-hCUpkUwDiexDsR6DDoUD-rLw2Bnns9OVcykyVhsSwoAGwgGdsgsHEHwnCaAUAKu5m2yzFdw__I9RTYhm5iiaTIm9NYs_tBm00]--></g></svg>