<?xml version="1.0" encoding="us-ascii" standalone="no"?><svg xmlns="http://www.w3.org/2000/svg" xmlns:xlink="http://www.w3.org/1999/xlink" contentStyleType="text/css" height="1232px" preserveAspectRatio="none" style="width:834px;height:1232px;background:#FFFFFF;" version="1.1" viewBox="0 0 834 1232" width="834px" zoomAndPan="magnify"><defs/><g><rect fill="#F1F1F1" height="36.2969" rx="12.5" ry="12.5" style="stroke:#181818;stroke-width:1.5;" width="114" x="10" y="597.043"/><text fill="#000000" font-family="sans-serif" font-size="14" lengthAdjust="spacing" textLength="94" x="20" y="620.0381">Data Science</text><rect fill="#F1F1F1" height="36.2969" rx="12.5" ry="12.5" style="stroke:#181818;stroke-width:1.5;" width="34" x="174" y="597.043"/><text fill="#000000" font-family="sans-serif" font-size="14" lengthAdjust="spacing" textLength="14" x="184" y="620.0381">AI</text><rect fill="#F1F1F1" height="36.2969" rx="12.5" ry="12.5" style="stroke:#181818;stroke-width:1.5;" width="218" x="258" y="20"/><text fill="#000000" font-family="sans-serif" font-size="14" lengthAdjust="spacing" textLength="198" x="268" y="42.9951">Reasoning, problem solving</text><rect fill="#F1F1F1" height="36.2969" rx="12.5" ry="12.5" style="stroke:#181818;stroke-width:1.5;" width="257" x="526" y="20"/><text fill="#000000" font-family="sans-serif" font-size="14" lengthAdjust="spacing" textLength="237" x="536" y="42.9951">Probabilistinc Model of the world</text><path d="M476,38.1484 L486,38.1484 C501,38.1484 501,38.1484 516,38.1484 L526,38.1484 " fill="none" style="stroke:#181818;stroke-width:1.0;"/><path d="M208,615.1914 L218,615.1914 C233,615.1914 233,38.1484 248,38.1484 L258,38.1484 " fill="none" style="stroke:#181818;stroke-width:1.0;"/><rect fill="#F1F1F1" height="36.2969" rx="12.5" ry="12.5" style="stroke:#181818;stroke-width:1.5;" width="212" x="258" y="132.5938"/><text fill="#000000" font-family="sans-serif" font-size="14" lengthAdjust="spacing" textLength="192" x="268" y="155.5889">Knowledge representation</text><rect fill="#F1F1F1" height="36.2969" rx="12.5" ry="12.5" style="stroke:#181818;stroke-width:1.5;" width="108" x="520" y="76.2969"/><text fill="#000000" font-family="sans-serif" font-size="14" lengthAdjust="spacing" textLength="84" x="530" y="99.292">IBM Watson</text><path d="M470,150.7422 L480,150.7422 C495,150.7422 495,94.4453 510,94.4453 L520,94.4453 " fill="none" style="stroke:#181818;stroke-width:1.0;"/><rect fill="#F1F1F1" height="36.2969" rx="12.5" ry="12.5" style="stroke:#181818;stroke-width:1.5;" width="83" x="520" y="132.5938"/><text fill="#000000" font-family="sans-serif" font-size="14" lengthAdjust="spacing" textLength="63" x="530" y="155.5889">Jeopardy</text><path d="M470,150.7422 L480,150.7422 C495,150.7422 495,150.7422 510,150.7422 L520,150.7422 " fill="none" style="stroke:#181818;stroke-width:1.0;"/><rect fill="#F1F1F1" height="36.2969" rx="12.5" ry="12.5" style="stroke:#181818;stroke-width:1.5;" width="243" x="520" y="188.8906"/><text fill="#000000" font-family="sans-serif" font-size="14" lengthAdjust="spacing" textLength="223" x="530" y="211.8857">Onthology (Knowledge Graphs)</text><path d="M470,150.7422 L480,150.7422 C495,150.7422 495,207.0391 510,207.0391 L520,207.0391 " fill="none" style="stroke:#181818;stroke-width:1.0;"/><path d="M208,615.1914 L218,615.1914 C233,615.1914 233,150.7422 248,150.7422 L258,150.7422 " fill="none" style="stroke:#181818;stroke-width:1.0;"/><rect fill="#F1F1F1" height="36.2969" rx="12.5" ry="12.5" style="stroke:#181818;stroke-width:1.5;" width="216" x="258" y="329.6328"/><text fill="#000000" font-family="sans-serif" font-size="14" lengthAdjust="spacing" textLength="196" x="268" y="352.6279">Planning &amp; Decision Making</text><rect fill="#F1F1F1" height="36.2969" rx="12.5" ry="12.5" style="stroke:#181818;stroke-width:1.5;" width="62" x="524" y="245.1875"/><text fill="#000000" font-family="sans-serif" font-size="14" lengthAdjust="spacing" textLength="42" x="534" y="268.1826">Chess</text><path d="M474,347.7813 L484,347.7813 C499,347.7813 499,263.3359 514,263.3359 L524,263.3359 " fill="none" style="stroke:#181818;stroke-width:1.0;"/><rect fill="#F1F1F1" height="36.2969" rx="12.5" ry="12.5" style="stroke:#181818;stroke-width:1.5;" width="81" x="524" y="301.4844"/><text fill="#000000" font-family="sans-serif" font-size="14" lengthAdjust="spacing" textLength="61" x="534" y="324.4795">AlphaGo</text><path d="M474,347.7813 L484,347.7813 C499,347.7813 499,319.6328 514,319.6328 L524,319.6328 " fill="none" style="stroke:#181818;stroke-width:1.0;"/><rect fill="#F1F1F1" height="36.2969" rx="12.5" ry="12.5" style="stroke:#181818;stroke-width:1.5;" width="134" x="524" y="357.7813"/><text fill="#000000" font-family="sans-serif" font-size="14" lengthAdjust="spacing" textLength="114" x="534" y="380.7764">Video Ganme AI</text><path d="M474,347.7813 L484,347.7813 C499,347.7813 499,375.9297 514,375.9297 L524,375.9297 " fill="none" style="stroke:#181818;stroke-width:1.0;"/><rect fill="#F1F1F1" height="36.2969" rx="12.5" ry="12.5" style="stroke:#181818;stroke-width:1.5;" width="134" x="524" y="414.0781"/><text fill="#000000" font-family="sans-serif" font-size="14" lengthAdjust="spacing" textLength="114" x="534" y="437.0732">Self driving cars</text><path d="M474,347.7813 L484,347.7813 C499,347.7813 499,432.2266 514,432.2266 L524,432.2266 " fill="none" style="stroke:#181818;stroke-width:1.0;"/><path d="M208,615.1914 L218,615.1914 C233,615.1914 233,347.7813 248,347.7813 L258,347.7813 " fill="none" style="stroke:#181818;stroke-width:1.0;"/><rect fill="#F1F1F1" height="36.2969" rx="12.5" ry="12.5" style="stroke:#181818;stroke-width:1.5;" width="145" x="258" y="385.9297"/><text fill="#000000" font-family="sans-serif" font-size="14" lengthAdjust="spacing" textLength="125" x="268" y="408.9248">Machine Learning</text><path d="M208,615.1914 L218,615.1914 C233,615.1914 233,404.0781 248,404.0781 L258,404.0781 " fill="none" style="stroke:#181818;stroke-width:1.0;"/><rect fill="#F1F1F1" height="36.2969" rx="12.5" ry="12.5" style="stroke:#181818;stroke-width:1.5;" width="262" x="258" y="611.1172"/><text fill="#000000" font-family="sans-serif" font-size="14" lengthAdjust="spacing" textLength="242" x="268" y="634.1123">NLP - Natural language processing</text><rect fill="#F1F1F1" height="36.2969" rx="12.5" ry="12.5" style="stroke:#181818;stroke-width:1.5;" width="58" x="570" y="470.375"/><text fill="#000000" font-family="sans-serif" font-size="14" lengthAdjust="spacing" textLength="34" x="580" y="493.3701">Chat</text><path d="M520,629.2656 L530,629.2656 C545,629.2656 545,488.5234 560,488.5234 L570,488.5234 " fill="none" style="stroke:#181818;stroke-width:1.0;"/><rect fill="#F1F1F1" height="36.2969" rx="12.5" ry="12.5" style="stroke:#181818;stroke-width:1.5;" width="87" x="570" y="526.6719"/><text fill="#000000" font-family="sans-serif" font-size="14" lengthAdjust="spacing" textLength="67" x="580" y="549.667">Translate</text><path d="M520,629.2656 L530,629.2656 C545,629.2656 545,544.8203 560,544.8203 L570,544.8203 " fill="none" style="stroke:#181818;stroke-width:1.0;"/><rect fill="#F1F1F1" height="36.2969" rx="12.5" ry="12.5" style="stroke:#181818;stroke-width:1.5;" width="59" x="570" y="582.9688"/><text fill="#000000" font-family="sans-serif" font-size="14" lengthAdjust="spacing" textLength="39" x="580" y="605.9639">Alexa</text><path d="M520,629.2656 L530,629.2656 C545,629.2656 545,601.1172 560,601.1172 L570,601.1172 " fill="none" style="stroke:#181818;stroke-width:1.0;"/><rect fill="#F1F1F1" height="36.2969" rx="12.5" ry="12.5" style="stroke:#181818;stroke-width:1.5;" width="252" x="570" y="639.2656"/><text fill="#000000" font-family="sans-serif" font-size="14" lengthAdjust="spacing" textLength="232" x="580" y="662.2607">NER - Named Entity Recognition</text><path d="M520,629.2656 L530,629.2656 C545,629.2656 545,657.4141 560,657.4141 L570,657.4141 " fill="none" style="stroke:#181818;stroke-width:1.0;"/><rect fill="#F1F1F1" height="36.2969" rx="12.5" ry="12.5" style="stroke:#181818;stroke-width:1.5;" width="162" x="570" y="695.5625"/><text fill="#000000" font-family="sans-serif" font-size="14" lengthAdjust="spacing" textLength="142" x="580" y="718.5576">Question Answering</text><path d="M520,629.2656 L530,629.2656 C545,629.2656 545,713.7109 560,713.7109 L570,713.7109 " fill="none" style="stroke:#181818;stroke-width:1.0;"/><rect fill="#F1F1F1" height="36.2969" rx="12.5" ry="12.5" style="stroke:#181818;stroke-width:1.5;" width="128" x="570" y="751.8594"/><text fill="#000000" font-family="sans-serif" font-size="14" lengthAdjust="spacing" textLength="108" x="580" y="774.8545">Summarization</text><path d="M520,629.2656 L530,629.2656 C545,629.2656 545,770.0078 560,770.0078 L570,770.0078 " fill="none" style="stroke:#181818;stroke-width:1.0;"/><path d="M208,615.1914 L218,615.1914 C233,615.1914 233,629.2656 248,629.2656 L258,629.2656 " fill="none" style="stroke:#181818;stroke-width:1.0;"/><rect fill="#F1F1F1" height="36.2969" rx="12.5" ry="12.5" style="stroke:#181818;stroke-width:1.5;" width="100" x="258" y="723.7109"/><text fill="#000000" font-family="sans-serif" font-size="14" lengthAdjust="spacing" textLength="80" x="268" y="746.7061">Perception</text><rect fill="#F1F1F1" height="36.2969" rx="12.5" ry="12.5" style="stroke:#181818;stroke-width:1.5;" width="55" x="408" y="667.4141"/><text fill="#000000" font-family="sans-serif" font-size="14" lengthAdjust="spacing" textLength="35" x="418" y="690.4092">Lidar</text><path d="M358,741.8594 L368,741.8594 C383,741.8594 383,685.5625 398,685.5625 L408,685.5625 " fill="none" style="stroke:#181818;stroke-width:1.0;"/><rect fill="#F1F1F1" height="36.2969" rx="12.5" ry="12.5" style="stroke:#181818;stroke-width:1.5;" width="75" x="408" y="723.7109"/><text fill="#000000" font-family="sans-serif" font-size="14" lengthAdjust="spacing" textLength="55" x="418" y="746.7061">Camera</text><path d="M358,741.8594 L368,741.8594 C383,741.8594 383,741.8594 398,741.8594 L408,741.8594 " fill="none" style="stroke:#181818;stroke-width:1.0;"/><rect fill="#F1F1F1" height="36.2969" rx="12.5" ry="12.5" style="stroke:#181818;stroke-width:1.5;" width="105" x="408" y="780.0078"/><text fill="#000000" font-family="sans-serif" font-size="14" lengthAdjust="spacing" textLength="85" x="418" y="803.0029">Microphone</text><path d="M358,741.8594 L368,741.8594 C383,741.8594 383,798.1563 398,798.1563 L408,798.1563 " fill="none" style="stroke:#181818;stroke-width:1.0;"/><path d="M208,615.1914 L218,615.1914 C233,615.1914 233,741.8594 248,741.8594 L258,741.8594 " fill="none" style="stroke:#181818;stroke-width:1.0;"/><rect fill="#F1F1F1" height="36.2969" rx="12.5" ry="12.5" style="stroke:#181818;stroke-width:1.5;" width="198" x="258" y="892.6016"/><text fill="#000000" font-family="sans-serif" font-size="14" lengthAdjust="spacing" textLength="178" x="268" y="915.5967">Motion and manipulation</text><rect fill="#F1F1F1" height="36.2969" rx="12.5" ry="12.5" style="stroke:#181818;stroke-width:1.5;" width="84" x="506" y="836.3047"/><text fill="#000000" font-family="sans-serif" font-size="14" lengthAdjust="spacing" textLength="64" x="516" y="859.2998">Robotics</text><path d="M456,910.75 L466,910.75 C481,910.75 481,854.4531 496,854.4531 L506,854.4531 " fill="none" style="stroke:#181818;stroke-width:1.0;"/><rect fill="#F1F1F1" height="36.2969" rx="12.5" ry="12.5" style="stroke:#181818;stroke-width:1.5;" width="222" x="506" y="892.6016"/><text fill="#000000" font-family="sans-serif" font-size="14" lengthAdjust="spacing" textLength="202" x="516" y="915.5967">Actuators - car break, wheel</text><path d="M456,910.75 L466,910.75 C481,910.75 481,910.75 496,910.75 L506,910.75 " fill="none" style="stroke:#181818;stroke-width:1.0;"/><rect fill="#F1F1F1" height="36.2969" rx="12.5" ry="12.5" style="stroke:#181818;stroke-width:1.5;" width="196" x="506" y="948.8984"/><text fill="#000000" font-family="sans-serif" font-size="14" lengthAdjust="spacing" textLength="176" x="516" y="971.8936">Boston Dynamics robots</text><path d="M456,910.75 L466,910.75 C481,910.75 481,967.0469 496,967.0469 L506,967.0469 " fill="none" style="stroke:#181818;stroke-width:1.0;"/><path d="M208,615.1914 L218,615.1914 C233,615.1914 233,910.75 248,910.75 L258,910.75 " fill="none" style="stroke:#181818;stroke-width:1.0;"/><rect fill="#F1F1F1" height="36.2969" rx="12.5" ry="12.5" style="stroke:#181818;stroke-width:1.5;" width="151" x="258" y="1061.4922"/><text fill="#000000" font-family="sans-serif" font-size="14" lengthAdjust="spacing" textLength="131" x="268" y="1084.4873">Social intelligence</text><rect fill="#F1F1F1" height="36.2969" rx="12.5" ry="12.5" style="stroke:#181818;stroke-width:1.5;" width="129" x="459" y="1005.1953"/><text fill="#000000" font-family="sans-serif" font-size="14" lengthAdjust="spacing" textLength="109" x="469" y="1028.1904">Robo therapist</text><path d="M409,1079.6406 L419,1079.6406 C434,1079.6406 434,1023.3438 449,1023.3438 L459,1023.3438 " fill="none" style="stroke:#181818;stroke-width:1.0;"/><rect fill="#F1F1F1" height="36.2969" rx="12.5" ry="12.5" style="stroke:#181818;stroke-width:1.5;" width="152" x="459" y="1061.4922"/><text fill="#000000" font-family="sans-serif" font-size="14" lengthAdjust="spacing" textLength="132" x="469" y="1084.4873">Sentiment analsys</text><path d="M409,1079.6406 L419,1079.6406 C434,1079.6406 434,1079.6406 449,1079.6406 L459,1079.6406 " fill="none" style="stroke:#181818;stroke-width:1.0;"/><rect fill="#F1F1F1" height="36.2969" rx="12.5" ry="12.5" style="stroke:#181818;stroke-width:1.5;" width="138" x="459" y="1117.7891"/><text fill="#000000" font-family="sans-serif" font-size="14" lengthAdjust="spacing" textLength="118" x="469" y="1140.7842">Vision detection</text><path d="M409,1079.6406 L419,1079.6406 C434,1079.6406 434,1135.9375 449,1135.9375 L459,1135.9375 " fill="none" style="stroke:#181818;stroke-width:1.0;"/><path d="M208,615.1914 L218,615.1914 C233,615.1914 233,1079.6406 248,1079.6406 L258,1079.6406 " fill="none" style="stroke:#181818;stroke-width:1.0;"/><rect fill="#F1F1F1" height="36.2969" rx="12.5" ry="12.5" style="stroke:#181818;stroke-width:1.5;" width="204" x="258" y="1174.0859"/><text fill="#000000" font-family="sans-serif" font-size="14" lengthAdjust="spacing" textLength="184" x="268" y="1197.0811">AGI - General intelligence</text><rect fill="#F1F1F1" height="36.2969" rx="12.5" ry="12.5" style="stroke:#181818;stroke-width:1.5;" width="121" x="512" y="1174.0859"/><text fill="#000000" font-family="sans-serif" font-size="14" lengthAdjust="spacing" textLength="101" x="522" y="1197.0811">Pie in sky goal</text><path d="M462,1192.2344 L472,1192.2344 C487,1192.2344 487,1192.2344 502,1192.2344 L512,1192.2344 " fill="none" style="stroke:#181818;stroke-width:1.0;"/><path d="M208,615.1914 L218,615.1914 C233,615.1914 233,1192.2344 248,1192.2344 L258,1192.2344 " fill="none" style="stroke:#181818;stroke-width:1.0;"/><path d="M124,615.1914 L134,615.1914 C149,615.1914 149,615.1914 164,615.1914 L174,615.1914 " fill="none" style="stroke:#181818;stroke-width:1.0;"/><rect fill="#F1F1F1" height="36.2969" rx="12.5" ry="12.5" style="stroke:#181818;stroke-width:1.5;" width="40" x="174" y="653.3398"/><text fill="#000000" font-family="sans-serif" font-size="14" lengthAdjust="spacing" textLength="20" x="184" y="676.335">ML</text><path d="M124,615.1914 L134,615.1914 C149,615.1914 149,671.4883 164,671.4883 L174,671.4883 " fill="none" style="stroke:#181818;stroke-width:1.0;"/><!--SRC=[RLDDRzim3BtxL_0q945RT4Kn33arRRgidTrbSTkT6OcrXSYY8Sd9l5y_-YDf3xi84YM-z_X8tOI8FbR6wGhhP0PBZ0YvCkGK9RCPB1vadS66CB0phZY3slFMKWM1xLu2tVKCrXB4hR4cHECKPAp90hz1B0aExAtkKNuuFbZI1O6dsbCW5p4QTWF6msq6lp4A3mo1H-8QlMw7qqyNIxPSj31vnrbvhCimxT7N5bqd4Jx1afG90WmPxauQxqeAOTWkR5tYYeV3gz74i49NqLZk37AoRw2zwIe4XRxF4pHL6aUG4detui9JkePpUCBOUBGW6ee6HPdOf8Jl0pl6iQvdZovOZ7GKGtzms3xTRtgiYZJSksXYAyuhBfnvj-bNGw4xmSA50_aJGTvK5Nhpz-GehCahgjypKwFHZsg4me-acL6Uwv8T3KLoZuvEGuNEr8tzqACDR-LQ7MrKiS78FeXeCGcsdd1t1eUIo0ulRZb40Lks3Yj90z_b3sRch8mOPbmaQqqn3jp8qGsEj5R6wTWFSQEIHNIX3MqujgxligP8wbJsOlKWUbRaoFyNVsr8eX1sBHICdL38qkI6v0kCto3fHYc-P2dioVSCdo-kBg-kBowt5F5gyk9sCe4E55UriGITj6aoMQrJ-HMDc0vQb7kpRJfHq-GHzmYRfYzX3jrfyfnD8Ry_1gNPU-FPTHKcZw_Py0Y-SynhZltZBzVdjoQA4LuqmMkMBEaD6nibLR6MAPZ3o_Etywz9EaxW7CWbTom4lfMx_1y0]--></g></svg>